<svg width="1300" height="48" viewBox="0 0 1300 48" fill="none" xmlns="http://www.w3.org/2000/svg">
<path d="M13.0545 17.6085L6.05882 29.4334C5.93595 29.6411 5.86719 29.9196 5.86719 30.2097C5.86719 30.4997 5.93595 30.7783 6.05882 30.986L13.0545 42.8153C13.1118 42.9121 13.1802 42.9891 13.2558 43.0417C13.3314 43.0942 13.4126 43.1213 13.4946 43.1213C13.5767 43.1213 13.6579 43.0942 13.7335 43.0417C13.8091 42.9891 13.8775 42.9121 13.9347 42.8153C14.0525 42.6166 14.1184 42.35 14.1184 42.0723C14.1184 41.7947 14.0525 41.528 13.9347 41.3294L7.35617 30.2097L13.9347 19.0922C14.0521 18.8937 14.1177 18.6275 14.1177 18.3504C14.1177 18.0732 14.0521 17.8071 13.9347 17.6085C13.8775 17.5117 13.8091 17.4347 13.7335 17.3821C13.6579 17.3296 13.5767 17.3025 13.4946 17.3025C13.4126 17.3025 13.3314 17.3296 13.2558 17.3821C13.1802 17.4347 13.1118 17.5117 13.0545 17.6085Z" fill="white"/>
<path d="M1286.95 30.9522L1293.94 19.1274C1294.06 18.9197 1294.13 18.6412 1294.13 18.3511C1294.13 18.0611 1294.06 17.7825 1293.94 17.5748L1286.95 5.74552C1286.89 5.64867 1286.82 5.57168 1286.74 5.51912C1286.67 5.46655 1286.59 5.43947 1286.51 5.43947C1286.42 5.43947 1286.34 5.46655 1286.27 5.51912C1286.19 5.57168 1286.12 5.64867 1286.07 5.74552C1285.95 5.94416 1285.88 6.21081 1285.88 6.48847C1285.88 6.76613 1285.95 7.03278 1286.07 7.23141L1292.64 18.3511L1286.07 29.4686C1285.95 29.6671 1285.88 29.9333 1285.88 30.2104C1285.88 30.4875 1285.95 30.7537 1286.07 30.9522C1286.12 31.0491 1286.19 31.1261 1286.27 31.1787C1286.34 31.2312 1286.42 31.2583 1286.51 31.2583C1286.59 31.2583 1286.67 31.2312 1286.74 31.1787C1286.82 31.1261 1286.89 31.0491 1286.95 30.9522Z" fill="white"/>
</svg>
