<svg width="29" height="29" viewBox="0 0 29 29" fill="none" xmlns="http://www.w3.org/2000/svg">
<g clip-path="url(#clip0_9_114)">
<path d="M20.1393 9.66665V7.29026C20.1393 6.54975 19.9935 5.81649 19.7101 5.13235C19.4267 4.44821 19.0114 3.82658 18.4877 3.30296C17.9641 2.77934 17.3425 2.36398 16.6583 2.0806C15.9742 1.79722 15.2409 1.65137 14.5004 1.65137C13.7599 1.65137 13.0267 1.79722 12.3425 2.0806C11.6584 2.36398 11.0368 2.77934 10.5131 3.30296C9.98952 3.82658 9.57416 4.44821 9.29078 5.13235C9.0074 5.81649 8.86155 6.54975 8.86155 7.29026V12.9291C8.86155 13.1428 8.94642 13.3477 9.09749 13.4988C9.24856 13.6498 9.45345 13.7347 9.6671 13.7347C9.88075 13.7347 10.0856 13.6498 10.2367 13.4988C10.3878 13.3477 10.4727 13.1428 10.4727 12.9291V11.2778L19.3338 11.2778L18.7642 9.66665H10.4727V7.29026C10.4727 6.22202 10.897 5.19754 11.6524 4.44219C12.4077 3.68683 13.4322 3.26248 14.5004 3.26248C15.5687 3.26248 16.5931 3.68683 17.3485 4.44219C18.1039 5.19754 18.5282 6.22202 18.5282 7.29026V12.8889C18.5282 13.1025 18.6131 13.3074 18.7642 13.4585C18.9152 13.6096 19.1201 13.6944 19.3338 13.6944C19.5474 13.6944 19.7523 13.6096 19.9034 13.4585C20.0545 13.3074 20.1393 13.1025 20.1393 12.8889V11.2778H24.1671V25.7778H4.83377V11.2778H9.09749V9.66665H3.22266V25.8503C3.22266 26.2583 3.38476 26.6497 3.6733 26.9382C3.96185 27.2268 4.3532 27.3889 4.76127 27.3889H24.2396C24.6477 27.3889 25.039 27.2268 25.3276 26.9382C25.6161 26.6497 25.7782 26.2583 25.7782 25.8503V9.66665H20.1393Z" fill="#2D2D2D"/>
</g>
<defs>
<clipPath id="clip0_9_114">
<rect width="29" height="29" fill="white"/>
</clipPath>
</defs>
</svg>
