<svg width="19" height="19" viewBox="0 0 19 19" fill="none" xmlns="http://www.w3.org/2000/svg">
<path d="M8.73999 13.68C6.00399 13.68 3.79999 11.476 3.79999 8.74005C3.79999 6.00405 6.00399 3.80005 8.73999 3.80005C11.476 3.80005 13.68 6.00405 13.68 8.74005C13.68 11.476 11.476 13.68 8.73999 13.68ZM8.73999 4.56005C6.42199 4.56005 4.55999 6.42205 4.55999 8.74005C4.55999 11.058 6.42199 12.92 8.73999 12.92C11.058 12.92 12.92 11.058 12.92 8.74005C12.92 6.42205 11.058 4.56005 8.73999 4.56005Z" fill="#6F6F6F"/>
<path d="M12.4192 11.8813L15.8316 15.2937L15.2942 15.8311L11.8818 12.4187L12.4192 11.8813Z" fill="#6F6F6F"/>
</svg>
