<svg width="31" height="31" viewBox="0 0 31 31" fill="none" xmlns="http://www.w3.org/2000/svg">
<path d="M16.2684 27.0445L25.9482 17.2733C27.2039 15.9916 27.9051 14.2674 27.9001 12.473C27.8952 10.6787 27.1846 8.95829 25.9218 7.68349C25.3024 7.0516 24.5634 6.5492 23.748 6.20551C22.9326 5.86183 22.057 5.68372 21.1721 5.68156C20.2872 5.67939 19.4107 5.85321 18.5936 6.19291C17.7765 6.5326 17.0351 7.03139 16.4126 7.66024L15.4888 8.59489L14.551 7.64939C13.9324 7.01834 13.1945 6.51657 12.3802 6.17327C11.5659 5.82997 10.6915 5.65199 9.8078 5.64968C8.9241 5.64737 8.04876 5.82078 7.23269 6.15982C6.41662 6.49887 5.67609 6.99678 5.05418 7.62459C2.43778 10.2673 2.45018 14.5624 5.07898 17.2175L14.8083 27.0445C15.2113 27.4522 15.8654 27.4522 16.2684 27.0445ZM17.5146 8.74989C17.9931 8.26688 18.563 7.88392 19.191 7.62333C19.8189 7.36273 20.4925 7.22972 21.1724 7.23202C21.8523 7.23433 22.525 7.37192 23.1511 7.63677C23.7773 7.90162 24.3446 8.28844 24.8198 8.77469C25.7951 9.75948 26.3443 11.0881 26.3489 12.4741C26.3535 13.8601 25.8133 15.1924 24.8446 16.1837V16.1868L15.5384 25.5798L6.17948 16.1263C4.14433 14.071 4.14278 10.7478 6.15623 8.71424C6.63413 8.23212 7.20316 7.84989 7.83019 7.58979C8.45723 7.3297 9.12974 7.19694 9.80858 7.19925C10.4874 7.20156 11.159 7.33888 11.7843 7.60324C12.4095 7.86759 12.9759 8.25368 13.4505 8.73904L14.9385 10.2425C15.0106 10.3154 15.0964 10.3733 15.191 10.4128C15.2856 10.4522 15.3871 10.4726 15.4896 10.4726C15.5921 10.4726 15.6935 10.4522 15.7881 10.4128C15.8827 10.3733 15.9685 10.3154 16.0406 10.2425L17.5146 8.74989Z" fill="#2D2D2D"/>
</svg>
