<svg width="26" height="26" viewBox="0 0 26 26" fill="none" xmlns="http://www.w3.org/2000/svg">
<path d="M13.6444 22.6826L21.7629 14.4874C22.8161 13.4124 23.4042 11.9663 23.4001 10.4613C23.3959 8.95641 22.7999 7.5135 21.7408 6.44432C21.2213 5.91435 20.6015 5.49298 19.9176 5.20472C19.2337 4.91647 18.4993 4.76709 17.7572 4.76528C17.015 4.76346 16.2799 4.90925 15.5946 5.19415C14.9093 5.47906 14.2875 5.89739 13.7653 6.42482L12.9905 7.20872L12.204 6.41572C11.6852 5.88645 11.0663 5.46561 10.3833 5.17768C9.70038 4.88975 8.967 4.74048 8.22583 4.73854C7.48467 4.73661 6.75051 4.88205 6.06606 5.16641C5.38161 5.45076 4.76053 5.86837 4.23893 6.39492C2.04453 8.61142 2.05493 12.2137 4.25973 14.4406L12.4198 22.6826C12.7578 23.0245 13.3064 23.0245 13.6444 22.6826ZM14.6896 7.33872C15.091 6.93362 15.5689 6.61242 16.0956 6.39386C16.6223 6.1753 17.1872 6.06374 17.7574 6.06567C18.3277 6.06761 18.8918 6.183 19.417 6.40514C19.9422 6.62727 20.418 6.9517 20.8165 7.35952C21.6345 8.18547 22.0951 9.29982 22.099 10.4623C22.1029 11.6247 21.6498 12.7421 20.8373 13.5735V13.5761L13.0321 21.4541L5.18273 13.5254C3.47583 11.8016 3.47453 9.01442 5.16323 7.30882C5.56404 6.90446 6.0413 6.58388 6.5672 6.36574C7.0931 6.14759 7.65714 6.03625 8.22649 6.03818C8.79583 6.04012 9.35911 6.1553 9.88351 6.37701C10.4079 6.59873 10.883 6.92255 11.281 7.32962L12.529 8.59062C12.5895 8.65174 12.6615 8.70027 12.7408 8.73338C12.8201 8.7665 12.9052 8.78355 12.9912 8.78355C13.0771 8.78355 13.1623 8.7665 13.2416 8.73338C13.3209 8.70027 13.3929 8.65174 13.4533 8.59062L14.6896 7.33872Z" fill="white"/>
</svg>
