<svg width="37" height="37" viewBox="0 0 37 37" fill="none" xmlns="http://www.w3.org/2000/svg">
<path d="M17.7295 21.5833C24.1151 21.5833 29.292 23.999 29.292 26.9791V30.8333H6.16699V26.9791C6.16699 23.999 11.3439 21.5833 17.7295 21.5833ZM27.7503 26.9791C27.7503 24.8516 23.2641 23.1249 17.7295 23.1249C12.1949 23.1249 7.70866 24.8516 7.70866 26.9791V29.2916H27.7503V26.9791ZM17.7295 7.70825C19.1606 7.70825 20.533 8.27674 21.5449 9.28866C22.5568 10.3006 23.1253 11.673 23.1253 13.1041C23.1253 14.5351 22.5568 15.9076 21.5449 16.9195C20.533 17.9314 19.1606 18.4999 17.7295 18.4999C16.2984 18.4999 14.926 17.9314 13.9141 16.9195C12.9021 15.9076 12.3337 14.5351 12.3337 13.1041C12.3337 11.673 12.9021 10.3006 13.9141 9.28866C14.926 8.27674 16.2984 7.70825 17.7295 7.70825ZM17.7295 9.24992C16.7073 9.24992 15.727 9.65598 15.0042 10.3788C14.2814 11.1016 13.8753 12.0819 13.8753 13.1041C13.8753 14.1263 14.2814 15.1066 15.0042 15.8294C15.727 16.5522 16.7073 16.9583 17.7295 16.9583C18.7517 16.9583 19.732 16.5522 20.4548 15.8294C21.1776 15.1066 21.5837 14.1263 21.5837 13.1041C21.5837 12.0819 21.1776 11.1016 20.4548 10.3788C19.732 9.65598 18.7517 9.24992 17.7295 9.24992Z" fill="#2D2D2D"/>
</svg>
